#!OML:ASF I:\Actors\actors\Patient Classification 2\Patient 1\Session 1\actor1.ASF
:FULLY-SPECIFIED
:DEGREES
643
root -0.27536 18.0802 5.20832 6.4369 -7.50077 -3.47735
lowerback 22.3329 0.7181 -1.87374
upperback 4.96264 0.60618 1.54245
thorax -7.06279 0.318213 2.58217
lowerneck -32.8774 1.25034 1.66979
upperneck 20.0344 1.07592 -0.505968
head 11.9369 0.5422 -0.256139
rclavicle 8.54774e-015 1.35174e-014
rhumerus -41.3456 35.2622 -36.0393
rradius 61.5508
rwrist -7.6203
rhand -12.262 -10.5052
rfingers 7.12502
rthumb 13.8045 -40.0271
lclavicle 8.54774e-015 1.35174e-014
lhumerus -48.9387 -57.3056 48.6612
lradius 65.927
lwrist 27.4877
lhand -6.68197 -42.2457
lfingers 7.12502
lthumb 19.1767 -13.1712
rfemur 8.12771 -7.16531 16.4135
rtibia -19.548
rfoot -1.21852 -14.2987
rtoes 0.135902
lfemur 14.5835 0.574508 -13.1634
ltibia -29.2925
lfoot 9.19542 9.90065
ltoes -17.7982
644
root -0.28342 18.0967 5.27497 5.73776 -7.44704 -3.47159
lowerback 22.1966 0.621181 -1.68861
upperback 4.92703 0.52958 1.59857
thorax -7.02553 0.2789 2.558
lowerneck -33.2011 1.32825 1.84388
upperneck 21.12 1.19423 -0.835422
head 12.4266 0.561558 -0.387278
rclavicle -5.36719e-015 4.1546e-014
rhumerus -42.1628 37.4862 -34.6604
rradius 62.4005
rwrist -8.32589
rhand -12.9676 -10.3045
rfingers 7.12502
rthumb 13.1244 -39.8715
lclavicle -5.36719e-015 4.1546e-014
lhumerus -50.2161 -57.459 47.6087
lradius 66.6009
lwrist 27.7593
lhand -6.6717 -42.4715
lfingers 7.12502
lthumb 19.1865 -13.3979
rfemur 8.51805 -6.75129 16.2844
rtibia -18.2542
rfoot -2.2979 -14.0072
rtoes 0.179433
lfemur 15.1304 0.182736 -13.1811
ltibia -28.3521
lfoot 8.33508 9.98559
ltoes -17.7833
645
root -0.292342 18.111 5.33692 5.0584 -7.39766 -3.40322
lowerback 22.1011 0.542269 -1.56238
upperback 4.84812 0.460318 1.6272
thorax -7.05756 0.245264 2.53583
lowerneck -33.2755 1.40254 1.94595
upperneck 22.0517 1.3137 -1.03723
head 12.8191 0.593528 -0.459683
rclavicle -2.73329e-015 6.75868e-015
rhumerus -43.0511 38.9465 -33.3957
rradius 63.4918
rwrist -8.26885
rhand -13.1452 -9.91113
rfingers 7.12502
rthumb 12.9533 -39.4891
lclavicle -2.73329e-015 6.75868e-015
lhumerus -51.5623 -57.8025 46.8428
lradius 67.3636
lwrist 27.9475
lhand -6.60561 -42.7359
lfingers 7.12502
lthumb 19.2501 -13.6687
rfemur 8.86648 -6.32901 16.1078
rtibia -16.9631
rfoot -3.33348 -13.7242
rtoes 0.336179
lfemur 15.6386 -0.2788 -13.2754
ltibia -27.4372
lfoot 7.50964 10.1329
ltoes -17.8024
646
root -0.301653 18.1182 5.39325 4.47156 -7.3107 -3.33615
lowerback 22.0068 0.463946 -1.41475
upperback 4.71019 0.39459 1.6243
thorax -7.15472 0.214145 2.46634
lowerneck -33.1126 1.47857 2.08602
upperneck 22.8115 1.4205 -1.2271
head 13.1055 0.625305 -0.537576
rclavicle -3.21534e-014 -1.16289e-014
rhumerus -44.0724 40.4818 -32.4598
rradius 64.6236
rwrist -8.36115
rhand -13.1642 -9.49442
rfingers 7.12502
rthumb 12.9349 -39.0735
lclavicle -3.21534e-014 -1.16289e-014
lhumerus -52.8811 -58.3563 46.2552
lradius 68.2229
lwrist 28.1608
lhand -6.43183 -43.0368
lfingers 7.12502
lthumb 19.4172 -13.9862
rfemur 9.13339 -5.95366 15.9621
rtibia -15.7372
rfoot -4.33784 -13.4788
rtoes 0.545482
lfemur 16.0555 -0.716067 -13.3679
ltibia -26.5726
lfoot 6.73333 10.2535
ltoes -17.8507
647
root -0.311165 18.1284 5.44515 3.94327 -7.18411 -3.30954
lowerback 22.0127 0.391458 -1.25665
upperback 4.53757 0.342068 1.66414
thorax -7.34353 0.190534 2.43476
lowerneck -33.0123 1.53617 2.14121
upperneck 23.6285 1.53228 -1.3753
head 13.4299 0.657043 -0.585132
rclavicle -9.0447e-015 -2.00773e-014
rhumerus -45.1319 42.4473 -31.8198
rradius 65.6445
rwrist -8.88441
rhand -13.2284 -9.17119
rfingers 7.12502
rthumb 12.873 -38.7542
lclavicle -9.0447e-015 -2.00773e-014
lhumerus -54.2341 -58.9446 45.9914
lradius 69.1292
lwrist 28.4027
lhand -6.16231 -43.2977
lfingers 7.12502
lthumb 19.6763 -14.2735
rfemur 9.3746 -5.55286 15.8881
rtibia -14.5973
rfoot -5.31246 -13.3001
rtoes 0.453583
lfemur 16.4312 -1.12629 -13.4142
ltibia -25.7752
lfoot 5.99655 10.3476
ltoes -17.8422
648
root -0.321908 18.136 5.49121 3.43357 -7.01952 -3.28603
lowerback 22.2227 0.364212 -1.18697
upperback 4.32059 0.336855 1.80135
thorax -7.69193 0.194151 2.54931
lowerneck -33.0539 1.54392 2.05411
upperneck 24.5132 1.65435 -1.55033
head 13.8135 0.673396 -0.619054
rclavicle -3.57812e-014 1.84373e-014
rhumerus -46.3338 44.4028 -31.3663
rradius 66.719
rwrist -9.61042
rhand -13.1586 -8.99482
rfingers 7.12502
rthumb 12.9403 -38.5736
lclavicle -3.57812e-014 1.84373e-014
lhumerus -55.56 -59.4428 46.1372
lradius 70.0227
lwrist 28.7427
lhand -5.95279 -43.491
lfingers 7.12502
lthumb 19.8777 -14.4875
rfemur 9.63198 -5.0833 15.8477
rtibia -13.5474
rfoot -6.29825 -13.2437
rtoes 0.474473
lfemur 16.8168 -1.565 -13.447
ltibia -25.0964
lfoot 5.3366 10.4323
ltoes -17.8137
